<svg width="415" height="296" viewBox="0 0 415 296" fill="none" xmlns="http://www.w3.org/2000/svg">
<g clip-path="url(#clip0_71_3743)">
<path d="M378.941 266.278C382.581 272.714 379.495 294.451 379.495 294.451C379.495 294.451 359.283 285.893 355.644 279.46C353.901 276.369 353.455 272.713 354.405 269.294C355.355 265.875 357.623 262.974 360.71 261.227C363.798 259.48 367.452 259.031 370.871 259.978C374.289 260.925 377.192 263.191 378.941 266.278Z" fill="#F1F1F1"/>
<path d="M379.787 294.423L379.358 294.514C375.222 274.859 360.78 261.531 360.635 261.398L360.93 261.074C361.076 261.207 375.621 274.626 379.787 294.423Z" fill="white"/>
<path d="M412.012 273.606C407.073 282.569 379.227 294.711 379.227 294.711C379.227 294.711 374.636 264.673 379.572 255.713C381.944 251.41 385.928 248.226 390.647 246.861C395.366 245.496 400.434 246.062 404.736 248.434C409.037 250.807 412.221 254.792 413.585 259.513C414.95 264.234 414.384 269.303 412.012 273.606Z" fill="#F1F1F1"/>
<path d="M379.473 295.036L379.055 294.595C399.205 275.453 404.421 248.753 404.471 248.486L405.068 248.598C405.018 248.868 399.769 275.754 379.473 295.036Z" fill="white"/>
<path d="M97.5682 205.74C94.3814 205.729 91.2086 205.319 88.124 204.518L87.5161 204.349L86.9521 204.067C66.5626 193.84 49.3611 180.333 35.8253 163.919C24.6205 150.252 15.8847 134.734 10.0108 118.064C2.98649 98.1055 -0.39289 77.0462 0.0339805 55.8914C0.0425939 55.4473 0.0498836 55.1045 0.0498836 54.8683C0.0498836 44.5847 5.75602 35.5617 14.5869 31.8808C21.3456 29.0637 82.7117 3.84941 87.1455 2.02761C95.4957 -2.15781 104.404 1.33558 105.829 1.94648C109.027 3.25427 165.756 26.4653 178.015 32.3048C190.649 38.3232 194.02 49.1351 194.02 54.5747C194.02 79.2016 189.757 102.217 181.348 122.983C174.557 139.791 164.932 155.308 152.892 168.858C129.663 195.008 106.427 204.279 106.203 204.361C103.426 205.316 100.505 205.783 97.5682 205.74ZM92.104 192.2C94.1184 192.652 98.7563 193.329 101.779 192.226C105.619 190.825 125.067 180.737 143.24 160.279C168.35 132.012 181.09 96.4788 181.109 54.6656C181.064 53.8185 180.462 47.7765 172.464 43.9667C160.443 38.2401 101.477 14.1209 100.883 13.8778L100.72 13.8087C99.4846 13.2907 95.552 12.1996 92.8412 13.6207L92.2984 13.8738C91.6411 14.1438 26.5004 40.9079 19.5531 43.8036C14.6932 45.8292 12.9617 50.8474 12.9617 54.8683C12.9617 55.1621 12.9541 55.5895 12.9434 56.142C12.3881 84.7522 19.0064 155.153 92.104 192.2Z" fill="#3F3D56"/>
<path d="M89.8451 7.89981C89.8451 7.89981 24.1123 34.9067 17.0694 37.8422C10.0266 40.7777 6.50523 47.823 6.50523 54.8683C6.50523 61.9136 1.22314 153.845 89.8451 198.293C89.8451 198.293 97.8884 200.52 103.991 198.293C110.093 196.067 187.564 158.492 187.564 54.5747C187.564 54.5747 187.564 44.0068 175.239 38.1358C162.914 32.2647 103.325 7.89981 103.325 7.89981C103.325 7.89981 96.0075 4.67073 89.8451 7.89981Z" fill="#8BD78F"/>
<path opacity="0.1" d="M96.8871 29.0356V173.108C96.8871 173.108 30.5674 141.173 31.1543 57.2167L96.8871 29.0356Z" fill="black"/>
<path d="M97.7531 132.582L76.627 105.409L88.9127 95.8503L98.916 108.716L132.708 73.0309L144.009 83.7411L97.7531 132.582Z" fill="white"/>
<path d="M414.494 296H221.452C221.318 296 221.189 295.947 221.094 295.852C220.999 295.757 220.945 295.628 220.945 295.493C220.945 295.359 220.999 295.23 221.094 295.135C221.189 295.04 221.318 294.986 221.452 294.986H414.494C414.628 294.986 414.757 295.04 414.852 295.135C414.947 295.23 415.001 295.359 415.001 295.493C415.001 295.628 414.947 295.757 414.852 295.852C414.757 295.947 414.628 296 414.494 296Z" fill="#CACACA"/>
<path d="M277.253 288.011L285.089 288.01L288.817 257.775L277.252 257.775L277.253 288.011Z" fill="#FFB8B8"/>
<path d="M275.254 285.451L290.686 285.451H290.687C293.295 285.451 295.796 286.487 297.64 288.332C299.485 290.177 300.521 292.679 300.521 295.288V295.608L275.254 295.609L275.254 285.451Z" fill="#2F2E41"/>
<path d="M303.601 288.011L311.437 288.01L315.165 257.775L303.6 257.775L303.601 288.011Z" fill="#FFB8B8"/>
<path d="M301.602 285.451L317.034 285.451H317.034C319.642 285.451 322.144 286.487 323.988 288.332C325.832 290.177 326.869 292.679 326.869 295.288V295.608L301.602 295.609L301.602 285.451Z" fill="#2F2E41"/>
<path d="M289.57 181.832L291.45 277.753L276.244 276.81L265.695 215.714L262.363 174.056L289.57 181.832Z" fill="#2F2E41"/>
<path d="M315.666 165.725L317.796 279.274L300.063 278.767L296.232 211.27L289.57 186.831L262.363 174.056L266.805 143.508L306.782 142.953L315.666 165.725Z" fill="#2F2E41"/>
<path d="M285.092 64.0821C292.602 64.0821 298.691 57.9918 298.691 50.4791C298.691 42.9664 292.602 36.8762 285.092 36.8762C277.582 36.8762 271.494 42.9664 271.494 50.4791C271.494 57.9918 277.582 64.0821 285.092 64.0821Z" fill="#FFB8B8"/>
<path d="M296.37 69.8124L298.453 72.9691L304.006 88.5208L299.564 149.062L273.468 149.618L270.137 80.1892L277.115 71.4632L296.37 69.8124Z" fill="#CCCCCC"/>
<path d="M259.587 81.8557L255.145 81.3002C255.145 81.3002 254.035 81.8556 253.48 85.7436C252.925 89.6316 246.262 124.068 246.262 124.068L255.145 166.28L265.14 152.95L259.032 129.622L265.14 106.294L259.587 81.8557Z" fill="#2F2E41"/>
<path d="M316.221 81.3007H319.553L327.881 126.29L320.108 161.281L312.335 148.507L314.555 134.621L313.445 122.402L309.559 115.181L316.221 81.3007Z" fill="#2F2E41"/>
<path d="M293.127 50.4791L290.655 49.8608C290.655 49.8608 288.801 39.3494 284.474 40.586C280.147 41.8227 269.021 43.0593 269.021 38.1128C269.021 33.1662 279.529 28.838 285.71 29.4563C291.891 30.0747 299.785 32.1259 301.781 41.2043C304.98 55.7575 295.181 59.4334 295.181 59.4334L295.344 58.9035C295.796 57.4323 295.829 55.8637 295.437 54.375C295.046 52.8863 294.245 51.5368 293.127 50.4791Z" fill="#2F2E41"/>
<path d="M255.701 81.3003L273.469 74.0797L277.633 71.0249L290.126 126.29L295.955 69.3586L318.998 81.3002L311.224 119.069L310.114 133.51L313.445 145.174C313.445 145.174 325.105 153.506 321.218 162.392C317.332 171.279 312.89 171.835 312.89 171.835C312.89 171.835 294.012 154.061 292.902 149.618C291.791 145.174 290.126 137.398 290.126 137.398C290.126 137.398 280.687 172.945 269.582 172.39C258.477 171.835 258.477 160.171 258.477 160.171L261.254 147.951L265.695 135.177L263.474 114.07L255.701 81.3003Z" fill="#2F2E41"/>
</g>
<defs>
<clipPath id="clip0_71_3743">
<rect width="415" height="296" fill="white"/>
</clipPath>
</defs>
</svg>
