<svg width="169" height="179" viewBox="0 0 169 179" fill="none" xmlns="http://www.w3.org/2000/svg">
<path d="M84.9878 178.669C82.2121 178.66 79.4485 178.303 76.7618 177.608L76.2322 177.462L75.741 177.217C57.9813 168.34 42.9983 156.615 31.2083 142.367C21.4487 130.503 13.8396 117.034 8.72328 102.563C2.60495 85.2391 -0.338562 66.959 0.0332522 48.596C0.0407547 48.2105 0.0471041 47.9129 0.0471041 47.7078C0.0471041 38.7814 5.01728 30.9492 12.7092 27.7541C18.5962 25.3087 72.0475 3.42197 75.9095 1.84059C83.1826 -1.79248 90.9418 1.23989 92.1835 1.77017C94.9687 2.90537 144.381 23.0532 155.059 28.1221C166.064 33.3463 169 42.7313 169 47.453C169 68.8299 165.286 88.8083 157.962 106.833C152.047 121.423 143.663 134.893 133.176 146.655C112.943 169.354 92.7044 177.401 92.5091 177.472C90.0903 178.301 87.5455 178.706 84.9878 178.669ZM80.2284 166.916C81.983 167.308 86.0227 167.896 88.6557 166.939C92.0007 165.723 108.94 156.966 124.769 139.207C146.64 114.671 157.737 83.827 157.753 47.5319C157.714 46.7966 157.191 41.552 150.224 38.2449C139.753 33.2741 88.3929 12.3379 87.8753 12.1269L87.7334 12.0669C86.6571 11.6173 83.2317 10.6702 80.8705 11.9037L80.3977 12.1234C79.8252 12.3578 23.0861 35.5898 17.0348 38.1034C12.8018 39.8617 11.2936 44.2176 11.2936 47.7079C11.2936 47.9629 11.287 48.3339 11.2776 48.8135C10.794 73.648 16.5586 134.758 80.2284 166.916Z" fill="#3F3D56"/>
<path d="M78.2603 6.93783C78.2603 6.93783 21.0055 30.3806 14.8711 32.9287C8.7366 35.4768 5.66938 41.5923 5.66938 47.7079C5.66938 53.8234 1.06855 133.622 78.2603 172.205C78.2603 172.205 85.2663 174.138 90.5816 172.205C95.8969 170.273 163.376 137.657 163.376 47.453C163.376 47.453 163.376 38.2798 152.641 33.1835C141.905 28.0873 90.0019 6.93783 90.0019 6.93783C90.0019 6.93783 83.628 4.13489 78.2603 6.93783Z" fill="#8BD78F"/>
<path opacity="0.1" d="M84.3969 25.2844V150.343C84.3969 150.343 26.6308 122.623 27.142 49.7464L84.3969 25.2844Z" fill="black"/>
<path d="M85.1495 115.166L66.748 91.5786L77.4493 83.2814L86.1623 94.4494L115.596 63.4735L125.439 72.7703L85.1495 115.166Z" fill="white"/>
</svg>
